<svg xmlns="http://www.w3.org/2000/svg" viewBox="0 0 32 32"><polygon points="14 15 15 15 15 14 16 14 16 13 17 13 17 12 18 12 18 11 19 11 19 10 20 10 20 9 21 9 21 8 22 8 22 13 24 13 24 2 21 2 21 3 20 3 20 4 19 4 19 5 18 5 18 6 17 6 17 7 16 7 16 8 15 8 15 9 14 9 14 10 13 10 13 11 12 11 12 12 11 12 11 13 10 13 10 14 9 14 9 15 8 15 8 16 7 16 7 17 6 17 6 18 5 18 5 19 4 19 4 20 3 20 3 21 2 21 2 24 13 24 13 22 8 22 8 21 9 21 9 20 10 20 10 19 11 19 11 18 12 18 12 17 13 17 13 16 14 16"/><polygon points="22 20 22 21 21 21 21 22 20 22 20 23 19 23 19 24 18 24 18 20 19 20 19 19 20 19 20 18 24 18 24 14 19 14 19 15 18 15 18 16 17 16 17 17 16 17 16 18 15 18 15 19 14 19 14 30 18 30 18 29 19 29 19 28 20 28 20 27 21 27 21 26 22 26 22 25 23 25 23 24 30 24 30 20"/></svg>
